<svg width="227" height="227" viewBox="0 0 227 227" fill="none" xmlns="http://www.w3.org/2000/svg">
<path fill-rule="evenodd" clip-rule="evenodd" d="M217 113.5C217 127.759 214.117 141.344 208.901 153.705L218.367 156.997C223.929 143.601 227 128.909 227 113.5C227 50.8157 176.184 0 113.5 0C54.6976 0 6.33938 44.7167 0.575402 102H5H10.6317H63V111.458L18.6464 154.978C13.0856 142.28 10 128.25 10 113.5C10 111.527 10.0552 109.568 10.1641 107.622L0.374153 104.217C0.126327 107.279 0 110.375 0 113.5C0 176.184 50.8157 227 113.5 227C159.615 227 199.307 199.498 217.068 160H213.5H205.991H151V102H183V82H151V40H131V82H83V40H63V82H14.8807C28.2075 40.2415 67.3221 10 113.5 10C170.661 10 217 56.3385 217 113.5ZM192.813 180H123V179.421L122.64 179.782L72.8909 130.033L67.033 135.891L82.0711 150.929L67.929 165.071L52.8909 150.033L29.2675 173.656C48.0418 199.898 78.7737 217 113.5 217C145.343 217 173.827 202.62 192.813 180ZM131 159.858V102H83V111.858L131 159.858Z" fill="black"/>
</svg>
